<svg xmlns="http://www.w3.org/2000/svg" version="1.1" xmlns:xlink="http://www.w3.org/1999/xlink" xmlns:svgjs="http://svgjs.dev/svgjs" width="308.7612359841165" height="304.915625" viewBox="0 0 106.00782394174519 104.68749999999999"><rect width="308.7612359841165" height="304.915625" fill="#000000"></rect><g transform="matrix(0.75,0,0,0.75,249.090909090909,282.7536437246964)"><svg viewBox="0 0 396 247" data-background-color="#000000" preserveAspectRatio="xMidYMid meet" height="1247" width="2000" xmlns="http://www.w3.org/2000/svg" xmlns:xlink="http://www.w3.org/1999/xlink"><g id="tight-bounds" transform="matrix(1,0,0,1,0.2400000000000091,-0.09999999999999432)"><svg viewBox="0 0 395.52 247.2" height="247.2" width="395.52"><g><svg></svg></g><g><svg viewBox="0 0 395.52 247.2" height="247.2" width="395.52"><g transform="matrix(1,0,0,1,75.54432,59.89283192575406)"><svg viewBox="0 0 244.43135999999998 127.41433614849187" height="127.41433614849187" width="244.43135999999998"><g><svg viewBox="0 0 244.43135999999998 127.41433614849187" height="127.41433614849187" width="244.43135999999998"><g><svg viewBox="0 0 244.43135999999998 127.41433614849187" height="127.41433614849187" width="244.43135999999998"><g><svg viewBox="0 0 244.43135999999998 127.41433614849187" height="127.41433614849187" width="244.43135999999998"><g id="textblocktransform"><svg viewBox="0 0 244.43135999999998 127.41433614849187" height="127.41433614849187" width="244.43135999999998" id="textblock"><g><svg viewBox="0 0 244.43135999999998 127.41433614849187" height="127.41433614849187" width="244.43135999999998"><g transform="matrix(1,0,0,1,0,0)"><svg width="244.43135999999998" viewBox="3.5 -33.70000076293945 64.6500015258789 33.70000076293945" height="127.41433614849187" data-palette-color="#ffffff"><path d="M7.55 0L3.5 0 5.95-33.7 11.1-33.7 15.55-21.4 20.95-5.7Q23.85-13.9 26.65-21.4L26.65-21.4 31.3-33.7 36.45-33.7 39.4 0 35.35 0 34.2-13.3 33-28.25Q30.35-20.85 27.55-13.3L27.55-13.3 22.85-0.75 19-0.75 14.55-13.3 9.45-27.95Q9.45-26 8.5-13.3L8.5-13.3 7.55 0ZM50.75-30.25L50.75-15.85 55.95-15.85Q59.75-15.85 61.9-17.82 64.05-19.8 64.05-22.85L64.05-22.85Q64.05-26.25 61.85-28.25 59.65-30.25 55.6-30.25L55.6-30.25 50.75-30.25ZM46.7 0L46.7-33.7 55.55-33.7Q61.4-33.7 64.77-30.68 68.15-27.65 68.15-22.85L68.15-22.85Q68.15-18.35 64.8-15.38 61.45-12.4 55.95-12.4L55.95-12.4 50.75-12.4 50.75 0 46.7 0Z" opacity="1" transform="matrix(1,0,0,1,0,0)" fill="#ffffff" class="undefined-text-0" data-fill-palette-color="primary" id="text-0"></path></svg></g></svg></g></svg></g></svg></g></svg></g></svg></g></svg></g><g><path d="M245.816 0c68.262 0 123.6 55.338 123.6 123.6 0 68.262-55.338 123.6-123.6 123.6-38.339 0-72.601-17.456-95.272-44.853h7.585c21.575 24.008 52.867 39.108 87.687 39.108 65.089 0 117.855-52.765 117.855-117.855 0-65.089-52.765-117.855-117.855-117.855-34.819 0-66.112 15.1-87.687 39.108l-7.585 0c22.671-27.397 56.933-44.853 95.272-44.853z" fill="#ffffff" stroke="transparent" data-fill-palette-color="tertiary"></path></g></svg></g><defs></defs></svg><rect width="395.52" height="247.2" fill="none" stroke="none" visibility="hidden"></rect></g></svg></g></svg>